<svg width="27" height="27" viewBox="0 0 27 27" fill="none" xmlns="http://www.w3.org/2000/svg">
<g clip-path="url(#clip0_461_26404)">
<path d="M9.87427 19.3594L5.01889 3.57206L21.1643 0.726083L26.0212 16.5119L9.87574 19.3594M21.2553 0.57196L4.84276 3.46639L9.78035 19.5179L26.1929 16.6249L21.2553 0.57196Z" stroke="white" stroke-width="0.25" stroke-miterlimit="10"/>
<path d="M5.30957 26.3327L0.454191 10.5469L16.5996 7.69941L21.455 23.4867L5.30957 26.3327M16.6906 7.54529L0.278066 10.4382L5.21561 26.4912L21.6282 23.5968L16.6906 7.54529Z" stroke="white" stroke-width="0.25" stroke-miterlimit="10"/>
<path d="M16.6906 7.54531L21.2568 0.57196L4.84429 3.46639L0.278072 10.4397L16.6906 7.54531Z" stroke="white" stroke-width="0.25" stroke-miterlimit="10"/>
<path d="M0.277955 10.4398L5.21405 26.4913L9.78174 19.5194L4.84417 3.46643L0.277955 10.4398Z" stroke="white" stroke-width="0.25" stroke-miterlimit="10"/>
<path d="M5.2141 26.4913L21.6281 23.5983L26.1943 16.6249L9.78178 19.5194L5.2141 26.4913Z" stroke="white" stroke-width="0.25" stroke-miterlimit="10"/>
<path d="M21.6281 23.5983L26.1943 16.625L21.2568 0.572021L16.6906 7.54537L21.6281 23.5983Z" stroke="white" stroke-width="0.25" stroke-miterlimit="10"/>
<path d="M5.30952 26.3357L9.87573 19.3623L5.02037 3.57501L0.454148 10.5484L5.30952 26.3357Z" stroke="white" stroke-width="0.25" stroke-miterlimit="10"/>
<path d="M0.454138 10.5484L16.5952 7.70236L21.1614 0.729004L5.02036 3.575L0.454138 10.5484Z" stroke="white" stroke-width="0.25" stroke-miterlimit="10"/>
<path d="M16.5953 7.70236L21.4506 23.4896L26.0168 16.5163L21.1615 0.729004L16.5953 7.70236Z" stroke="white" stroke-width="0.25" stroke-miterlimit="10"/>
<path d="M21.4506 23.4896L26.0168 16.5163L9.87583 19.3623L5.30961 26.3356L21.4506 23.4896Z" stroke="white" stroke-width="0.25" stroke-miterlimit="10"/>
</g>
<defs>
<clipPath id="clip0_461_26404">
<rect width="26.4706" height="27" fill="white" transform="matrix(-1 0 0 1 26.4707 0)"/>
</clipPath>
</defs>
</svg>
