<svg width="74" height="60" viewBox="0 0 74 60" fill="none" xmlns="http://www.w3.org/2000/svg">
<g clip-path="url(#clip0_461_26436)">
<path d="M44.6556 40.0486L31.9201 1.34197L1.80505 18.7287L14.5369 57.4389L44.6556 40.0486M1.42993 18.5501L32.0522 0.870483L44.9985 40.2165L14.3762 57.8961L1.42993 18.5501Z" stroke="white" stroke-width="0.25" stroke-miterlimit="10"/>
<path d="M72.2239 41.2061L59.4742 2.4959L29.3555 19.8827L42.0911 58.5928L72.2061 41.2061M28.9983 19.7041L59.6242 2.02441L72.5704 41.3847L41.9481 59.0644L28.9983 19.7041Z" stroke="white" stroke-width="0.25" stroke-miterlimit="10"/>
<path d="M29.0015 19.7038L1.42993 18.5499L32.0558 0.866699L59.6238 2.02415L29.0015 19.7038Z" stroke="white" stroke-width="0.25" stroke-miterlimit="10"/>
<path d="M59.6241 2.02415L72.5704 41.3809L45.0024 40.227L32.0562 0.866699L59.6241 2.02415Z" stroke="white" stroke-width="0.25" stroke-miterlimit="10"/>
<path d="M72.5699 41.3807L41.9476 59.0639L14.3796 57.9064L45.002 40.2268L72.5699 41.3807Z" stroke="white" stroke-width="0.25" stroke-miterlimit="10"/>
<path d="M41.9477 59.0645L14.3798 57.9071L1.42993 18.5503L29.0015 19.7042L41.9477 59.0645Z" stroke="white" stroke-width="0.25" stroke-miterlimit="10"/>
<path d="M72.2093 41.2024L44.6413 40.0485L31.9094 1.33838L59.4774 2.49583L72.2093 41.2024Z" stroke="white" stroke-width="0.25" stroke-miterlimit="10"/>
<path d="M59.4774 2.49583L29.3623 19.8825L1.79077 18.7287L31.9094 1.33838L59.4774 2.49583Z" stroke="white" stroke-width="0.25" stroke-miterlimit="10"/>
<path d="M29.3623 19.8821L42.0942 58.5887L14.5263 57.4349L1.79077 18.7283L29.3623 19.8821Z" stroke="white" stroke-width="0.25" stroke-miterlimit="10"/>
<path d="M42.0941 58.5893L14.5261 57.4354L44.6412 40.0487L72.2091 41.2026L42.0941 58.5893Z" stroke="white" stroke-width="0.25" stroke-miterlimit="10"/>
</g>
<defs>
<clipPath id="clip0_461_26436">
<rect width="74" height="60" fill="white"/>
</clipPath>
</defs>
</svg>
