<svg width="50" height="51" viewBox="0 0 50 51" fill="none" xmlns="http://www.w3.org/2000/svg">
<g clip-path="url(#clip0_461_26372)">
<path d="M31.3487 36.5677L40.52 6.74724L10.0231 1.3715L0.849013 31.1892L31.3459 36.5677M9.85113 1.08038L40.8526 6.54764L31.5261 36.8671L0.524658 31.4026L9.85113 1.08038Z" stroke="white" stroke-width="0.25" stroke-miterlimit="10"/>
<path d="M39.971 49.7396L49.1423 19.9219L18.6454 14.5434L9.4741 44.3638L39.971 49.7396M18.4735 14.2523L49.475 19.7167L40.1485 50.039L9.14697 44.5717L18.4735 14.2523Z" stroke="white" stroke-width="0.25" stroke-miterlimit="10"/>
<path d="M18.4735 14.2523L9.84839 1.08038L40.8499 6.54764L49.4749 19.7195L18.4735 14.2523Z" stroke="white" stroke-width="0.25" stroke-miterlimit="10"/>
<path d="M49.475 19.7196L40.1513 50.039L31.5234 36.8699L40.8499 6.54767L49.475 19.7196Z" stroke="white" stroke-width="0.25" stroke-miterlimit="10"/>
<path d="M40.1513 50.039L9.14705 44.5745L0.521973 31.4026L31.5235 36.8699L40.1513 50.039Z" stroke="white" stroke-width="0.25" stroke-miterlimit="10"/>
<path d="M9.14705 44.5746L0.521973 31.4027L9.84848 1.08044L18.4736 14.2523L9.14705 44.5746Z" stroke="white" stroke-width="0.25" stroke-miterlimit="10"/>
<path d="M39.971 49.7451L31.3459 36.5732L40.5172 6.75281L49.1423 19.9247L39.971 49.7451Z" stroke="white" stroke-width="0.25" stroke-miterlimit="10"/>
<path d="M49.1422 19.9247L18.6536 14.549L10.0286 1.37708L40.5172 6.75285L49.1422 19.9247Z" stroke="white" stroke-width="0.25" stroke-miterlimit="10"/>
<path d="M18.6537 14.549L9.4825 44.3694L0.857422 31.1975L10.0287 1.37708L18.6537 14.549Z" stroke="white" stroke-width="0.25" stroke-miterlimit="10"/>
<path d="M9.4825 44.3693L0.857422 31.1974L31.346 36.5732L39.9711 49.7451L9.4825 44.3693Z" stroke="white" stroke-width="0.25" stroke-miterlimit="10"/>
</g>
<defs>
<clipPath id="clip0_461_26372">
<rect width="50" height="51" fill="white"/>
</clipPath>
</defs>
</svg>
