<svg xmlns="http://www.w3.org/2000/svg" width="250" height="250" fill="none" viewBox="0 0 250 250">
<!-- SVG created with Arrow, by QuiverAI (https://quiver.ai) -->
  <path d="m244.1 78.22c-1.92-10.24-11.03-21.53-20.29-24.32-11.45-3.54-25.9-3.82-41.1-1.17l0.99 1.33c14.21-2.08 27.07-1.65 37.37 2.15 8.68 3.35 16.83 9.6 18.58 20.4 3.63 22.33-22.7 50.5-53.87 74.41-35.52 27.32-80.67 48.09-115.3 56.08-16.12 4.08-31.27 0.81-37.6-9.22-5.04-7.67-3.71-18.55 1.81-30.48l-1.55-2.22c-7.01 13.65-8.34 25.99-2.18 35.08 7.37 11.05 23.72 15.05 42.6 10.46 36.28-8.44 84.23-30.51 119-57.76 31.25-24.77 55.22-52.79 51.55-74.74z" fill="url(#paint0_linear_1321_10068)" opacity=".25"/>
  <path d="m235.1 68.19c-4.79-10.56-14.36-14.48-27.1-14.48l0.91 1.7c10.8 0.58 18.8 4.7 23.14 13.65 10.03 21.89-20.05 56.89-61.17 86.55s-87.78 45.16-108.6 43.34c-12.14-1.07-21.12-4.23-26.25-14.33-5.96-11.56-2.16-27.26 7.21-43.61l-1.65-1.92c-11.42 18.44-14.92 35.64-7.72 48.32 6.19 10.72 17.29 14.48 31.26 14.19 26.83-0.58 70.61-17.49 108.9-45.5 41.66-30.29 70.65-66.19 61.05-87.91z" fill="url(#paint1_linear_1321_10068)" opacity=".5"/>
  <path d="m224.9 41.98c-7.8-11.97-23.81-14.17-41.94-11.97l2.06 1.22c15.61-1.51 27.67 1.98 34.68 12.68 14.99 24.3-16.71 65.27-59.06 97.85s-90.57 48.08-113.6 38.35c-11.61-5.05-17.37-14.93-17.89-28.03-0.71-15.97 7.29-34.86 20.03-53.14l-1.44-1.92c-14.62 21.02-23.3 41.72-21.7 58.59 1.33 13.58 8.34 23.46 21.58 28.05 26.02 9.45 77.38-7.6 120.5-40.33 43.11-32.72 71.83-75.95 56.84-101.4z" fill="url(#paint2_linear_1321_10068)" opacity=".75"/>
  <path d="m211.9 25.07c-9.5-11.71-33.2-6.66-48.19-1.92l2.32 0.77c13.24-4.29 32.4-7.21 40.92 0.29l4.95 0.86z" fill="url(#paint3_linear_1321_10068)" opacity=".5"/>
  <path d="m228.2 174.2c-1.03-9.45-7.36-16.55-12.15-23.94l-0.94 1.69c5.13 7.1 10.51 14.49 10.87 23.1 0.36 10.7-10.87 16.6-21.17 16.89l2.9 1.72c10.96-0.86 21.66-7.81 20.49-19.46z" fill="url(#paint4_linear_1321_10068)" opacity=".5"/>
  <path d="m27.04 58.2c-3.06 10.47 0.85 22.71 8.36 35.81l1.33-2.78c-6.34-11.4-9.29-22.17-6.61-31.32 3.8-12.68 14.94-17.59 29.93-17.3l-2.06-1.63c-14.54-0.87-26.83 4.54-30.95 17.22z" fill="url(#paint5_linear_1321_10068)" opacity=".75"/>
  <path d="m209.3 202.1c-6.49 10.47-20.7 10.76-34.9 6.99l2.68 1.43c12.91 3.67 26.71 3.1 33.72-7.93l-1.5-0.49z" fill="url(#paint6_linear_1321_10068)" opacity=".75"/>
  <path d="m5.42 155.7c3.39-16.62 11.59-29.44 21.89-41.4l-0.48-1.63c-11.62 13.59-19.82 26.41-21.41 43.03z" fill="url(#paint7_linear_1321_10068)" opacity=".75"/>
  <path d="m47.01 30.94 2.47-0.83c8.35-2.69 17.19-1.16 26.23 1.7l-1.44 1.12c-9.5-3.16-19.17-4.88-27.26-1.99z" fill="url(#paint8_linear_1321_10068)" opacity=".75"/>
  <path d="m126.1 21.41c24.68-1.15 53.68 8.94 76.44 29.39 30.87 28.01 34.68 76.31 17.59 112.5-19 42-50.2 54.68-84.89 63.87-29.16 2.79-54.33-5.25-75.11-24.98l1.6-0.87c20.47 18.26 44.4 26.87 72.18 24.27 33.83-4.49 63.83-20.56 82.83-59.76 17.09-35.6 11.32-81.95-18.48-110.6-22.45-21.89-50.1-33.19-72.16-33.86z" fill="url(#paint9_linear_1321_10068)" opacity=".75"/>
  <path d="m213.1 34.06c-11.61-12.41-36.92-8.99-53.52-3.95l2.06 0.83c15.61-5.05 37.14-6.16 47.15 4.31 17.59 19.03-3.7 56.36-42.78 90.84l1.17 1.43c38.43-32.89 60.67-77.3 45.92-93.46z" fill="url(#paint10_linear_1321_10068)" opacity=".75"/>
  <path d="m44.11 37.82c9.5-11.96 30.16-4.32 42.27 1.04l-1.76 0.72c-11.37-5.32-29.41-11.53-38.45-1.32-14.99 17.86 1.45 48.07 25.54 76.96l-1.44 0.86c-24.68-29.03-38.89-62.96-26.16-78.26z" fill="url(#paint11_linear_1321_10068)" opacity=".75"/>
  <path d="m216.1 40.11c-11.62-15.33-43.87-11.2-61.91-6.1l2.06 0.91c17.09-5.05 43.98-7.4 53.99 4.8 14.99 19.03-9.12 57.2-49.57 89.49l1.43 1.16c40.45-31.72 66.72-73.26 54-90.26z" fill="url(#paint12_linear_1321_10068)" opacity=".75"/>
  <path d="m41.21 45.16c-11.09 10.47-8.12 32.36 5.8 55.1l1.04-2.2c-12.23-21.07-15.64-41-5.12-50.88 13.92-12.4 43.72-4.08 55.34 1.53l1.03-0.86c-13.39-6.87-44.57-15.17-58.09-2.69z" fill="url(#paint13_linear_1321_10068)" opacity=".75"/>
  <path d="m219.7 180c-5.52 13.84-29.61 20-69.7 2.24l-1.04 1.42c34.69 16.63 60.86 14.5 69.9-0.54l0.84-3.12z" fill="url(#paint14_linear_1321_10068)" opacity=".75"/>
  <path d="m16.52 169.8c4.34 16.34 18.99 17.47 31.1 17.76l-0.71-1.63c-12.14-0.29-24.78-3.17-28.95-17.86l-1.44 1.73z" fill="url(#paint15_linear_1321_10068)" opacity=".75"/>
  <path d="m39.11 209.9c8.51 7.2 20.94 6.34 33.68 4.61l-1.03-1.16c-11.61 2.31-23.9 2.6-32.65-3.45z" fill="url(#paint16_linear_1321_10068)" opacity=".75"/>
  <path d="m103.2 23.49c-25.51 6.52-46.29 19.85-59.53 40.72l1.03 1.73c12.74-21.17 34.03-34.17 59.54-41.73l-1.04-0.72z" fill="url(#paint17_linear_1321_10068)" opacity=".75"/>
  <path d="m150.8 225c-29.16 6.76-62.75-1-88.01-25.04l-1.04 0.86c24.68 23.03 56.93 30.47 89.05 24.8v-0.62z" fill="url(#paint18_linear_1321_10068)" opacity=".75"/>
  <path d="m15.21 158.5c1.04 15.33 12.13 22.79 27.75 23.65l-0.52-2.03c-14.21-1.43-24.22-7.93-25.25-22.45-1.56-20.87 19.97-45.98 42.42-72.24l-1.03-1.7c-21.96 25.4-44.93 52.29-43.37 74.77z" fill="url(#paint19_linear_1321_10068)" opacity=".75"/>
  <path d="m22.22 162.3c3.63 12.37 15.74 16.17 30.84 15.6l-0.52-1.73c-13.7 0.86-24.79-2.9-28.42-14.56-6.49-20.32 14.29-48.04 38.68-77.26l-1.28-1.43c-23.9 28.31-46.41 57.79-39.3 79.38z" fill="url(#paint20_linear_1321_10068)" opacity=".75"/>
  <path d="m126.4 28.38c-36.33 0-64.27 15.78-78.77 40.88l1.17 1.43c13.92-24.61 40.82-40.97 77.14-40.68 26.17 0 51.33 11.97 68.92 30.72l1.44-1.43c-18.04-19.43-42.15-30.92-69.9-30.92z" fill="url(#paint21_linear_1321_10068)" opacity=".75"/>
  <path d="m212.7 126.7c0 46.21-34.4 85.64-86.47 85.64-49.43 0-86.36-37.68-86.36-85.06 0-46.83 34.39-89.28 86.05-89.28 50.69 0 86.78 39.31 86.78 88.7z" fill="url(#paint22_radial_1321_10068)"/>
  <path d="m137.9 47.85-1.17-2.57-3.63-2.03-5.92-0.24-9.04 1.11-5.92-0.24-3.63 1.72 2.06 0.86 3.63-0.29 4.36 2.57 1.55 3.15-2.68-0.29-0.46 1.72 1.75 5.61 4.36 4.02 3.13 0.57 1.44-5.09 3.63-2.31 7.01-4.23 0.57-2.03-1.04-2.01z" fill="url(#paint23_linear_1321_10068)"/>
  <path d="m141.2 56.46 2.57 0.29 1.28-0.63 2.57 0.29-0.26 2.03-3.07 0.86-3.09-2.02v-0.82z" fill="url(#paint24_linear_1321_10068)"/>
  <path d="m144.3 43.83 2.05-0.29 2.57 1.73 0.84 1.16-2.32-0.29-3.14-1.43v-0.88z" fill="url(#paint25_linear_1321_10068)"/>
  <path d="m109.1 45.28-1.55 0.86-0.84-0.58-1.55 1.15-1.14-0.29-1.28 1.43-2.32 0.29-1.13 1.72-2.06-0.58 0.84-2.28 2.86-0.29 1.04 0.29 1.28-0.86 1.55 0.28 1.86-1.42 2.44 0.28z" fill="url(#paint26_linear_1321_10068)"/>
  <path d="m108.1 48.43-2.33 0.86-1.76 1.43-1.86 0.86-1.04 2.31 1.55 1.16 2.06-0.86 0.84-2.88 2.33-1.16 1.28 0.57 1.03 1.43 1.55-0.29 3.88 3.48-0.75 2.57-2.16 0.57-1.55-2.31-1.55 1.16-2.32-0.86-1.55 1.73-3.14-1.44-0.74 1.73-4.62 0.29-5.42 4.02-1.28 2.26 2.33 1.73 2.05 2.86 1.81-0.86-0.57 2.57 1.28 1.16 2.32-2.31 0.52-3.43 2.85-0.86 1.81-5.05 2.33 0.29 1.76 2.57 2.05-0.58 1.55 2.57 1.04 2.57 1.28 0.57 3.13 4.22-1.28 1.73 1.03 0.86 1.81 0.86v2.31l-1.55 0.29-0.57-2.31-3.13 0.86-1.33-0.58 1.76-2.01 2.05-1.43-1.81 0.86-5.42 0.57-4.9 3.16 3.13-1.15 3.37 0.57-0.26 2.31 2.57-0.57-2.32 2.01-4.21 1.16-0.52-1.43-5.42 2.31-2.85 3.15v1.73l-2.57 1.43-1.76 4.85-5.42 2.57-0.84 3.97 1.13 3.97v1.73l-1.65-0.58-1.03-5.15-3.93-1.13-3.14 0.57-1.28-0.86-6.18 2.57-3.43 7.73 0.52 5.66 2.57 2.86 3.63-0.57 2.06 2.86 3.37 0.57 1.76 1.73-0.26 3.44 3.37 3.15 2.33-0.57 1.75 3.15-0.57 6.2-2.05-0.29-1.55-3.43-3.88-2.58-5.14-3.15-4.9-6.5-5.42-2.31-5.42-11.11-2.33-12.94 0.26-2.86 8.52-15.65 1.55-5.41-2.06-2.03 2.06-5.61 0.79-3.46-3.37 2.31-9.55 15.05-1.13 6.5 4.11 13.53-0.51 8.6-2.86-8.02 1.28-5.91-4.36 2.86-8.52 12.51-2.05 7.44-0.99 9.73 0.52 11.66 4.16 20.29 10.57 16.01 14.75 19.04 15.77-2.31 11.37-16.34v-3.97l1.76-2.03-2.86-3.97-10.57-7.73-1.28-6.2 0.57-9.19-6.73-8.9 2.32-1.16 3.58 2.57 3.88-0.57 1.28-3.72-3.14-1.73-2.57-0.86-0.79-3.97 2.57-1.43 2.06 1.11 4.11 3.67 3.42 0.57 1.04-1.16 1.55 2.31 4.16 0.86 4.16-0.57 3.37 3.43-0.31 1.73 2.57-0.58 4.16 1.73 2.86 2.86 3.63 1.73-1.81 2.85-1.81 0.29 3.63 2.02 7.01-2.85 7.01-10.52-0.26-1.16 24.38-16.62-1.04-2.86 2.86-4.85 3.63-2.86 0.79-6.5 6.18-5.71 3.63-0.86 4.36 0.57 1.81 3.15 4.9 1.73 7.74-9.74-1.04-0.86-3.13 4.85-2.06-1.43 2.33-4.85-1.55-9.5-2.06 2.86-0.51-2.03-1.04 0.86 3.14 4.27-2.33 4.85-7.01-6.21-2.57 1.43 0.79 1.73-1.81-0.86-0.79 2.31-1.28-1.16-2.1 3.67-5.92 5.61-2.86-4.53-0.25-2.86 4.16-1.16 1.28-2.31-3.43-2.57-2.85 0.29-2.06-4.24-2.85-8.32-1.04 1.16 0.52 3.72 0.25 1.73 1.81 0.57 1.55-2.31-1.81-1.44 2.06-0.57 4.16 6.2 2.86-2.86-0.79-3.15-5.42-5.66-1.76-6.2-1.28-4.54 1.04-2.31 4.62 0.86 5.17 2.86 1.04 3.15-1.28 0.29-3.94-3.15-1.03 2.31 4.11 5.46 3.42 1.43 1.04-2.57 1.81 1.43-0.79 2.02 1.28 2.86-2.86 0.57-2.57-2.86-1.81 1.16 3.88 4.23 3.63-2.31-1.04-6.79-1.55-0.57-1.04-3.15-4.41-3.97 3.37 1.15 2.05-0.86-3.42-3.72-5.92-1.98-4.16 1.11c-3.13-1.11-1.32-0.31-2.6-1.45l-3.37-2.59-5.13-0.87-4.62-1.12-4.9 0.29-1.51 1.41" fill="url(#paint27_linear_1321_10068)"/>
  <path d="m180.1 82.01 1.55-0.86 4.9 3.97-1.04 2.03-2.85-2.03-2.56-3.11z" fill="url(#paint28_linear_1321_10068)"/>
  <path d="m202.3 100.3-1.55-3.15 0.52 0.29 2.32 4.27-1.29-1.41z" fill="url(#paint29_linear_1321_10068)"/>
  <path d="m206.9 106.2 1.33 3.72-0.79 0.57-1.33-3.43 0.79-0.86z" fill="url(#paint30_linear_1321_10068)"/>
  <path d="m210.8 130.5-5.42 22.52-5.41 9.5-0.79 5.14-7.01 8.6-8.52 3.44 2.33-16.66 3.63-6.77-1.28-22.8-4.16-3.67-10.83 5.31-6.23-4.02-3.63-6.5-2.06-10.47 14.21-10.08 12.96-10.84 11.09-13 2.33-2.02 7.79 17.88 2.57 17.64-1.57 16.8z" fill="url(#paint31_linear_1321_10068)"/>
  <path d="m82.13 111.2 2.32-0.86 4.16 1.16 5.14 3.15 1.55 1.43 2.32-0.57 3.14 1.16 0.79 0.86-2.62-0.3-1.55 0.58-1.55-1.73-2.57 0.29-3.63-2.86-3.37-1.43-4.13-0.88z" fill="url(#paint32_linear_1321_10068)"/>
  <path d="m110.1 192.2 2.57-1.43 1.03 0.57-2.32 1.43-2.06-0.29 0.78-0.28z" fill="url(#paint33_linear_1321_10068)"/>
  <path d="m105.2 199.3 2.57-0.29 1.28 1.43-2.33 0.29-1.52-1.43z" fill="url(#paint34_linear_1321_10068)"/>
  <path d="m120.2 178.9 4.67-1.68 2.82 2.48-1.6 1.56-4.36 0.57-2.57-2.03 1.04-0.9z" fill="url(#paint35_linear_1321_10068)"/>
  <path d="m90.01 48.14-2.85 0.57 1.55 1.44-1.04 1.11 1.55 1.73 1.81 0.57 1.81-1.16 1.28 1.16 3.42-1.43 0.74-2.31-2.05-0.57-1.28 1.43-1.81-0.57 0.52-1.43-3.65-0.54z" fill="url(#paint36_linear_1321_10068)"/>
  <path d="m187.1 64.11c-17.7 29.85-56.61 64.5-97.06 89.05-36.64 22.49-66.64 21.9-70.01 6.96-3.93-16.91 9.02-36.66 16.27-49.76l-1.03-1.73c-9.5 16.62-21.84 36.65-17.97 52.67 4.11 16.35 34.41 18.67 74.86-4.12 42.61-23.74 81.04-59.07 96.03-92.45l-1.09-0.62z" fill="url(#paint37_linear_1321_10068)"/>
  <path d="m18.11 160.1c3.11 17.39 26 22.63 66.62 10.83 44.48-13.34 98.4-49.79 124.4-84l-1.34-1.73c-24.43 33.89-79.59 71.81-122.5 85.09-37.19 11.7-60.17 6.4-65.24-10.24l-1.94 0.05z" fill="url(#paint38_linear_1321_10068)"/>
  <path d="m17.96 159.6c0.79 17.21 19.79 24.97 53.07 17.73l-0.25 3.15c-31.21 7.2-50.73 0.6-53.41-18.17l0.59-2.71z" fill="url(#paint39_linear_1321_10068)"/>
  <path d="m20.86 133 2.57 0.57-2.06 3.67-2.05-0.57 1.54-3.67z" fill="url(#paint40_linear_1321_10068)"/>
  <path d="m226.2 49.86 1.81 2.03-1.28 1.72-1.55-2.32 1.02-1.43z" fill="url(#paint41_linear_1321_10068)"/>
  <defs>
    <linearGradient id="paint0_linear_1321_10068" x1="25.61" x2="243.8" y1="134.6" y2="134.6" gradientUnits="userSpaceOnUse">
      <stop stop-color="#F33B00" offset="0"/>
      <stop stop-color="#FFD2A9" offset=".5052"/>
      <stop stop-color="#F33B00" offset="1"/>
    </linearGradient>
    <linearGradient id="paint1_linear_1321_10068" x1="29.86" x2="236.9" y1="127.2" y2="127.2" gradientUnits="userSpaceOnUse">
      <stop stop-color="#F33B00" offset="0"/>
      <stop stop-color="#FFD2A9" offset=".5052"/>
      <stop stop-color="#F33B00" offset="1"/>
    </linearGradient>
    <linearGradient id="paint2_linear_1321_10068" x1="25.7" x2="228.8" y1="107.8" y2="107.8" gradientUnits="userSpaceOnUse">
      <stop stop-color="#5700F0" offset="0"/>
      <stop stop-color="#9F7DFF" offset=".5052"/>
      <stop stop-color="#5700F0" offset="1"/>
    </linearGradient>
    <linearGradient id="paint3_linear_1321_10068" x1="163.7" x2="208.3" y1="22.76" y2="22.76" gradientUnits="userSpaceOnUse">
      <stop stop-color="#5700F0" offset="0"/>
      <stop stop-color="#9F7DFF" offset=".5052"/>
      <stop stop-color="#5700F0" offset="1"/>
    </linearGradient>
    <linearGradient id="paint4_linear_1321_10068" x1="204" x2="228.4" y1="171.9" y2="171.9" gradientUnits="userSpaceOnUse">
      <stop stop-color="#5700F0" offset="0"/>
      <stop stop-color="#9F7DFF" offset=".5052"/>
      <stop stop-color="#5700F0" offset="1"/>
    </linearGradient>
    <linearGradient id="paint5_linear_1321_10068" x1="25.78" x2="60.05" y1="67.19" y2="67.19" gradientUnits="userSpaceOnUse">
      <stop stop-color="#39CEFF" offset="0"/>
      <stop stop-color="#9F7DFF" offset=".5052"/>
      <stop stop-color="#5700F0" offset="1"/>
    </linearGradient>
    <linearGradient id="paint6_linear_1321_10068" x1="174.4" x2="211" y1="207.7" y2="207.7" gradientUnits="userSpaceOnUse">
      <stop stop-color="#39CEFF" offset="0"/>
      <stop stop-color="#9F7DFF" offset=".5052"/>
      <stop stop-color="#5700F0" offset="1"/>
    </linearGradient>
    <linearGradient id="paint7_linear_1321_10068" x1="5.418" x2="27.31" y1="134.2" y2="134.2" gradientUnits="userSpaceOnUse">
      <stop stop-color="#39CEFF" offset="0"/>
      <stop stop-color="#9F7DFF" offset=".5052"/>
      <stop stop-color="#5700F0" offset="1"/>
    </linearGradient>
    <linearGradient id="paint8_linear_1321_10068" x1="47" x2="75.71" y1="30.56" y2="30.56" gradientUnits="userSpaceOnUse">
      <stop stop-color="#5700F0" offset="0"/>
      <stop stop-color="#9F7DFF" offset=".5052"/>
      <stop stop-color="#5700F0" offset="1"/>
    </linearGradient>
    <linearGradient id="paint9_linear_1321_10068" x1="58.98" x2="221.6" y1="124.7" y2="124.7" gradientUnits="userSpaceOnUse">
      <stop stop-color="#39CEFF" offset="0"/>
      <stop stop-color="#9F7DFF" offset=".5052"/>
      <stop stop-color="#5700F0" offset="1"/>
    </linearGradient>
    <linearGradient id="paint10_linear_1321_10068" x1="159.6" x2="219.1" y1="75.78" y2="75.78" gradientUnits="userSpaceOnUse">
      <stop stop-color="#39CEFF" offset="0"/>
      <stop stop-color="#9F7DFF" offset=".5052"/>
      <stop stop-color="#5700F0" offset="1"/>
    </linearGradient>
    <linearGradient id="paint11_linear_1321_10068" x1="37.97" x2="99.3" y1="71.89" y2="71.89" gradientUnits="userSpaceOnUse">
      <stop stop-color="#5700F0" offset="0"/>
      <stop stop-color="#9F7DFF" offset=".5052"/>
      <stop stop-color="#5700F0" offset="1"/>
    </linearGradient>
    <linearGradient id="paint12_linear_1321_10068" x1="160.7" x2="220.1" y1="77.87" y2="77.87" gradientUnits="userSpaceOnUse">
      <stop stop-color="#39CEFF" offset="0"/>
      <stop stop-color="#9F7DFF" offset=".5052"/>
      <stop stop-color="#5700F0" offset="1"/>
    </linearGradient>
    <linearGradient id="paint13_linear_1321_10068" x1="35.72" x2="99.3" y1="70.62" y2="70.62" gradientUnits="userSpaceOnUse">
      <stop stop-color="#5700F0" offset="0"/>
      <stop stop-color="#9F7DFF" offset=".5052"/>
      <stop stop-color="#5700F0" offset="1"/>
    </linearGradient>
    <linearGradient id="paint14_linear_1321_10068" x1="149" x2="219.9" y1="188.9" y2="188.9" gradientUnits="userSpaceOnUse">
      <stop stop-color="#39CEFF" offset="0"/>
      <stop stop-color="#9F7DFF" offset=".5052"/>
      <stop stop-color="#5700F0" offset="1"/>
    </linearGradient>
    <linearGradient id="paint15_linear_1321_10068" x1="16.52" x2="47.62" y1="177.8" y2="177.8" gradientUnits="userSpaceOnUse">
      <stop stop-color="#5700F0" offset="0"/>
      <stop stop-color="#9F7DFF" offset=".5052"/>
      <stop stop-color="#5700F0" offset="1"/>
    </linearGradient>
    <linearGradient id="paint16_linear_1321_10068" x1="39.11" x2="72.79" y1="212.9" y2="212.9" gradientUnits="userSpaceOnUse">
      <stop stop-color="#F33B00" offset="0"/>
      <stop stop-color="#FFD2A9" offset=".5052"/>
      <stop stop-color="#F33B00" offset="1"/>
    </linearGradient>
    <linearGradient id="paint17_linear_1321_10068" x1="43.68" x2="104.2" y1="44.71" y2="44.71" gradientUnits="userSpaceOnUse">
      <stop stop-color="#5700F0" offset="0"/>
      <stop stop-color="#9F7DFF" offset=".5052"/>
      <stop stop-color="#5700F0" offset="1"/>
    </linearGradient>
    <linearGradient id="paint18_linear_1321_10068" x1="61.71" x2="152" y1="218" y2="218" gradientUnits="userSpaceOnUse">
      <stop stop-color="#5700F0" offset="0"/>
      <stop stop-color="#9F7DFF" offset=".5052"/>
      <stop stop-color="#5700F0" offset="1"/>
    </linearGradient>
    <linearGradient id="paint19_linear_1321_10068" x1="14.99" x2="62.8" y1="135.6" y2="135.6" gradientUnits="userSpaceOnUse">
      <stop stop-color="#39CEFF" offset="0"/>
      <stop stop-color="#9F7DFF" offset=".5052"/>
      <stop stop-color="#5700F0" offset="1"/>
    </linearGradient>
    <linearGradient id="paint20_linear_1321_10068" x1="19.27" x2="63.83" y1="130.7" y2="130.7" gradientUnits="userSpaceOnUse">
      <stop stop-color="#39CEFF" offset="0"/>
      <stop stop-color="#9F7DFF" offset=".5052"/>
      <stop stop-color="#5700F0" offset="1"/>
    </linearGradient>
    <linearGradient id="paint21_linear_1321_10068" x1="47.62" x2="196.3" y1="49.54" y2="49.54" gradientUnits="userSpaceOnUse">
      <stop stop-color="#39CEFF" offset="0"/>
      <stop stop-color="#9F7DFF" offset=".5052"/>
      <stop stop-color="#5700F0" offset="1"/>
    </linearGradient>
    <radialGradient id="paint22_radial_1321_10068" cx="0" cy="0" r="1" gradientTransform="translate(126.3 90.71) scale(113.4 112.9)" gradientUnits="userSpaceOnUse">
      <stop stop-color="#2CC0F6" offset="0"/>
      <stop stop-color="#14569A" offset=".5208"/>
      <stop stop-color="#040046" offset="1"/>
    </radialGradient>
    <linearGradient id="paint23_linear_1321_10068" x1="123.6" x2="123.6" y1="42.61" y2="63.62" gradientUnits="userSpaceOnUse">
      <stop stop-color="#93F4F0" offset="0"/>
      <stop stop-color="#2CC0F6" offset="1"/>
    </linearGradient>
    <linearGradient id="paint24_linear_1321_10068" x1="144.5" x2="144.5" y1="56.02" y2="59.3" gradientUnits="userSpaceOnUse">
      <stop stop-color="#93F4F0" offset="0"/>
      <stop stop-color="#2CC0F6" offset="1"/>
    </linearGradient>
    <linearGradient id="paint25_linear_1321_10068" x1="147" x2="147" y1="43.54" y2="46.43" gradientUnits="userSpaceOnUse">
      <stop stop-color="#93F4F0" offset="0"/>
      <stop stop-color="#2CC0F6" offset="1"/>
    </linearGradient>
    <linearGradient id="paint26_linear_1321_10068" x1="105.2" x2="105.2" y1="44.71" y2="49.86" gradientUnits="userSpaceOnUse">
      <stop stop-color="#93F4F0" offset="0"/>
      <stop stop-color="#2CC0F6" offset="1"/>
    </linearGradient>
    <linearGradient id="paint27_linear_1321_10068" x1="128.2" x2="128.2" y1="41.98" y2="192.8" gradientUnits="userSpaceOnUse">
      <stop stop-color="#2CC0F6" offset="0"/>
      <stop stop-color="#040046" offset="1"/>
    </linearGradient>
    <linearGradient id="paint28_linear_1321_10068" x1="183.3" x2="183.3" y1="80.99" y2="87.34" gradientUnits="userSpaceOnUse">
      <stop stop-color="#2CC0F6" offset="0"/>
      <stop stop-color="#040046" offset="1"/>
    </linearGradient>
    <linearGradient id="paint29_linear_1321_10068" x1="201.9" x2="201.9" y1="97.11" y2="101.7" gradientUnits="userSpaceOnUse">
      <stop stop-color="#2CC0F6" offset="0"/>
      <stop stop-color="#040046" offset="1"/>
    </linearGradient>
    <linearGradient id="paint30_linear_1321_10068" x1="207.2" x2="207.2" y1="106.2" y2="110.5" gradientUnits="userSpaceOnUse">
      <stop stop-color="#2CC0F6" offset="0"/>
      <stop stop-color="#040046" offset="1"/>
    </linearGradient>
    <linearGradient id="paint31_linear_1321_10068" x1="186.9" x2="186.9" y1="78.2" y2="179.7" gradientUnits="userSpaceOnUse">
      <stop stop-color="#040046" offset="0"/>
      <stop stop-color="#3968CA" offset="1"/>
    </linearGradient>
    <linearGradient id="paint32_linear_1321_10068" x1="91.84" x2="91.84" y1="110.2" y2="117.8" gradientUnits="userSpaceOnUse">
      <stop stop-color="#2CC0F6" offset="0"/>
      <stop stop-color="#040046" offset="1"/>
    </linearGradient>
    <linearGradient id="paint33_linear_1321_10068" x1="110" x2="110" y1="190.7" y2="192.8" gradientUnits="userSpaceOnUse">
      <stop stop-color="#2CC0F6" offset="0"/>
      <stop stop-color="#040046" offset="1"/>
    </linearGradient>
    <linearGradient id="paint34_linear_1321_10068" x1="107.2" x2="107.2" y1="198.9" y2="200.8" gradientUnits="userSpaceOnUse">
      <stop stop-color="#2CC0F6" offset="0"/>
      <stop stop-color="#040046" offset="1"/>
    </linearGradient>
    <linearGradient id="paint35_linear_1321_10068" x1="123.4" x2="123.4" y1="177.1" y2="182" gradientUnits="userSpaceOnUse">
      <stop stop-color="#2CC0F6" offset="0"/>
      <stop stop-color="#040046" offset="1"/>
    </linearGradient>
    <linearGradient id="paint36_linear_1321_10068" x1="92.98" x2="92.98" y1="48.14" y2="53.7" gradientUnits="userSpaceOnUse">
      <stop stop-color="#2CC0F6" offset="0"/>
      <stop stop-color="#040046" offset="1"/>
    </linearGradient>
    <linearGradient id="paint37_linear_1321_10068" x1="17.37" x2="188.2" y1="119.8" y2="119.8" gradientUnits="userSpaceOnUse">
      <stop stop-color="#9F00FF" offset="0"/>
      <stop stop-color="#39CEFF" offset=".5052"/>
      <stop stop-color="#9F7DFF" offset="1"/>
    </linearGradient>
    <linearGradient id="paint38_linear_1321_10068" x1="17.96" x2="209.1" y1="133.9" y2="133.9" gradientUnits="userSpaceOnUse">
      <stop stop-color="#39CEFF" offset="0"/>
      <stop stop-color="#9F7DFF" offset=".5052"/>
      <stop stop-color="#5700F0" offset="1"/>
    </linearGradient>
    <linearGradient id="paint39_linear_1321_10068" x1="17.37" x2="71.03" y1="171.9" y2="171.9" gradientUnits="userSpaceOnUse">
      <stop stop-color="#39CEFF" offset="0"/>
      <stop stop-color="#9F7DFF" offset=".5052"/>
      <stop stop-color="#5700F0" offset="1"/>
    </linearGradient>
    <linearGradient id="paint40_linear_1321_10068" x1="21.38" x2="21.38" y1="133" y2="137.2" gradientUnits="userSpaceOnUse">
      <stop stop-color="#39CEFF" offset="0"/>
      <stop stop-color="#9F7DFF" offset=".5052"/>
      <stop stop-color="#5700F0" offset="1"/>
    </linearGradient>
    <linearGradient id="paint41_linear_1321_10068" x1="226.6" x2="226.6" y1="49.86" y2="53.61" gradientUnits="userSpaceOnUse">
      <stop stop-color="#39CEFF" offset="0"/>
      <stop stop-color="#9F7DFF" offset=".5052"/>
      <stop stop-color="#5700F0" offset="1"/>
    </linearGradient>
  </defs>
</svg>