<svg width="127" height="36" viewBox="0 0 127 36" fill="none" xmlns="http://www.w3.org/2000/svg">
<g clip-path="url(#clip0_1030_2839)">
<path fill-rule="evenodd" clip-rule="evenodd" d="M50.7364 2.64784C50.5845 2.51223 50.4632 2.34572 50.3808 2.15947C50.2984 1.97321 50.2568 1.7715 50.2587 1.56784C50.2533 1.35874 50.2932 1.15095 50.3756 0.958721C50.4581 0.766493 50.5812 0.594381 50.7364 0.454195C51.079 0.169346 51.5105 0.0133972 51.9561 0.0133972C52.4016 0.0133972 52.8331 0.169346 53.1757 0.454195C53.3298 0.595107 53.4519 0.767432 53.5337 0.959545C53.6155 1.15166 53.6552 1.35909 53.6501 1.56784C53.6507 1.77194 53.6078 1.97383 53.5242 2.16006C53.4407 2.34628 53.3184 2.51257 53.1656 2.64784C52.8239 2.93455 52.392 3.0917 51.946 3.0917C51.4999 3.0917 51.0681 2.93455 50.7263 2.64784H50.7364ZM53.3843 4.06093V13.3839H50.5278V4.06093H53.3843ZM46.1809 2.38878C47.0809 2.85527 47.8274 3.57134 48.3308 4.45121C48.8497 5.38937 49.1119 6.44776 49.0912 7.51962C49.11 8.58807 48.8478 9.6427 48.3308 10.5779C47.8282 11.4633 47.0789 12.1834 46.1742 12.6505C45.1725 13.1552 44.0624 13.4071 42.9409 13.3839H38.5435V1.65196H42.9409C44.0652 1.62585 45.1785 1.87902 46.1809 2.38878ZM45.2792 10.0262C45.8826 9.43402 46.1832 8.5985 46.1809 7.51962C46.1787 6.44075 45.8781 5.59962 45.2792 4.99626C44.6759 4.39289 43.8347 4.09233 42.7559 4.09458H41.4101V10.911H42.7559C43.837 10.911 44.6781 10.6161 45.2792 10.0262ZM55.4063 11.9574C55.8013 12.4613 56.3192 12.8552 56.9103 13.1013C57.5983 13.388 58.3386 13.5278 59.0837 13.5118C59.7666 13.5247 60.4452 13.4 61.0789 13.145C61.6047 12.9377 62.0625 12.5882 62.4011 12.1357C62.7059 11.7104 62.8662 11.1987 62.8587 10.6755C62.877 10.1159 62.6971 9.56773 62.3506 9.12785C62.0432 8.75903 61.649 8.47232 61.2033 8.29346C60.6542 8.08236 60.0924 7.90594 59.5211 7.76523C59.0652 7.67911 58.6197 7.54491 58.1921 7.36486C58.0676 7.32058 57.9598 7.23901 57.8833 7.13124C57.8069 7.02347 57.7655 6.89475 57.7648 6.76262C57.7619 6.65954 57.785 6.55739 57.8321 6.46564C57.8791 6.37389 57.9486 6.2955 58.034 6.23776C58.2637 6.09606 58.5317 6.02906 58.8011 6.04598C59.1393 6.02957 59.4729 6.12929 59.7465 6.3286C59.8648 6.42245 59.9632 6.53891 60.036 6.67119C60.1088 6.80347 60.1545 6.94893 60.1705 7.09906H62.8116C62.7447 6.20661 62.3274 5.37687 61.6508 4.79103C60.9779 4.21233 60.0561 3.92299 58.8852 3.92299C58.1792 3.90478 57.4774 4.03666 56.8262 4.30991C56.3 4.52676 55.8469 4.88988 55.5207 5.35626C55.2324 5.78447 55.0811 6.29017 55.0867 6.80635C55.0571 7.35336 55.2295 7.89217 55.5712 8.32037C55.8808 8.68433 56.2763 8.96534 56.7219 9.13794C57.2711 9.33973 57.8331 9.50495 58.4041 9.63252C58.8639 9.73552 59.3141 9.87733 59.7499 10.0564C59.8728 10.0999 59.9791 10.1806 60.0538 10.2874C60.1286 10.3942 60.1682 10.5216 60.1671 10.652C60.1679 10.7592 60.1418 10.865 60.0913 10.9596C60.0408 11.0542 59.9673 11.1347 59.8777 11.1936C59.6298 11.3464 59.3408 11.4192 59.0501 11.4022C58.6975 11.4135 58.351 11.3082 58.0643 11.1028C57.9368 11.0118 57.8306 10.8943 57.7528 10.7585C57.675 10.6226 57.6274 10.4715 57.6134 10.3155H54.7873C54.8271 10.9119 55.0425 11.4832 55.4063 11.9574ZM68.1241 4.32673C68.654 4.04932 69.2454 3.91043 69.8433 3.92299C70.5815 3.91391 71.3067 4.11712 71.9327 4.50841C72.5737 4.91977 73.0865 5.50256 73.4131 6.19066C73.7687 6.98435 73.9526 7.84427 73.9526 8.71402C73.9526 9.58377 73.7687 10.4437 73.4131 11.2374C73.084 11.9238 72.5717 12.506 71.9327 12.9196C71.308 13.3145 70.5823 13.5202 69.8433 13.5118C69.248 13.5234 68.6593 13.3857 68.1308 13.1114C67.6607 12.8713 67.2582 12.5174 66.96 12.0819V17.8284H64.1035V4.06093H66.96V5.37981C67.252 4.93538 67.6527 4.57289 68.1241 4.32673ZM70.4557 7.01832C70.2654 6.82008 70.0356 6.66403 69.7812 6.56028C69.5267 6.45653 69.2533 6.4074 68.9787 6.41608C68.7075 6.41172 68.4386 6.4646 68.1893 6.57128C67.94 6.67795 67.716 6.83601 67.5319 7.03514C67.1217 7.49658 66.909 8.10069 66.9398 8.71738C66.909 9.33407 67.1217 9.93818 67.5319 10.3996C67.7189 10.5961 67.9439 10.7525 68.1932 10.8594C68.4424 10.9663 68.7108 11.0214 68.982 11.0214C69.2533 11.0214 69.5216 10.9663 69.7709 10.8594C70.0202 10.7525 70.2451 10.5961 70.4321 10.3996C70.6392 10.1698 70.7989 9.90152 70.9022 9.60999C71.0056 9.31847 71.0505 9.00944 71.0344 8.70056C71.0711 8.08745 70.8629 7.48483 70.4557 7.02505V7.01832ZM77.8979 9.4071H84.3645C84.3975 9.12906 84.4143 8.84933 84.4149 8.56934C84.4341 7.71312 84.23 6.86666 83.8228 6.11326C83.442 5.42553 82.8707 4.86241 82.1776 4.49158C81.4363 4.10259 80.6089 3.90702 79.7719 3.92298C78.907 3.90065 78.0508 4.10109 77.2856 4.50504C76.5789 4.89108 76.001 5.47598 75.6235 6.18728C75.2154 6.97065 75.0117 7.84439 75.0314 8.72747C75.0098 9.61196 75.2172 10.487 75.6336 11.2677C76.0176 11.981 76.6025 12.5659 77.3159 12.9499C78.0671 13.3494 78.9078 13.5509 79.7585 13.5353C80.4647 13.5463 81.1649 13.4039 81.8108 13.1181C82.3939 12.8607 82.9107 12.4739 83.3223 11.9872C83.7338 11.5005 84.0292 10.9265 84.1861 10.3088H81.1581C81.0347 10.5952 80.8253 10.8362 80.5588 10.9983C80.2924 11.1605 79.9821 11.2358 79.671 11.2138C79.2224 11.2255 78.7872 11.0599 78.4598 10.7529C78.1044 10.3946 77.9028 9.91174 77.8979 9.4071ZM81.3735 7.17823C81.4603 7.38032 81.5005 7.59933 81.4912 7.81906H77.9147C77.9637 7.36164 78.1821 6.93912 78.5271 6.63476C78.8655 6.35066 79.2966 6.20097 79.7383 6.2142C80.1955 6.19813 80.6422 6.35421 80.9899 6.65158C81.1556 6.79615 81.2867 6.97614 81.3735 7.17823ZM89.862 4.4041C90.3716 4.10498 90.9535 3.95137 91.5443 3.95999V6.98803H90.7603C90.188 6.94447 89.6188 7.10673 89.1555 7.4456C88.7989 7.75513 88.6205 8.29008 88.6205 9.06055V13.3839H85.7641V4.06092H88.6205V5.60522C88.9338 5.11252 89.3592 4.70094 89.862 4.4041ZM92.8531 11.9574C93.2495 12.4598 93.767 12.8534 94.357 13.1013C95.0458 13.3896 95.7873 13.5305 96.5338 13.5151C97.2178 13.5278 97.8974 13.4031 98.5323 13.1484C99.0574 12.9414 99.5142 12.5918 99.8512 12.1391C100.157 11.7141 100.318 11.2024 100.312 10.6789C100.33 10.1188 100.148 9.57063 99.8007 9.13121C99.4938 8.76325 99.1009 8.47666 98.6568 8.29682C98.1078 8.08543 97.5459 7.909 96.9746 7.76859C96.5188 7.68194 96.0734 7.54775 95.6456 7.36822C95.5217 7.32339 95.4146 7.24157 95.3388 7.13385C95.263 7.02613 95.2221 6.89771 95.2217 6.76597C95.218 6.66316 95.2405 6.5611 95.287 6.46932C95.3335 6.37754 95.4024 6.29903 95.4875 6.24112C95.7182 6.09895 95.9874 6.03194 96.2579 6.04934C96.595 6.03288 96.9276 6.13265 97.2 6.33196C97.3187 6.42563 97.4177 6.54199 97.491 6.67427C97.5644 6.80654 97.6107 6.95208 97.6273 7.10242H100.268C100.235 6.65864 100.114 6.22584 99.9129 5.82908C99.7113 5.43232 99.433 5.07949 99.0942 4.79102C98.4213 4.21233 97.4994 3.92299 96.3286 3.92299C95.6249 3.90604 94.9255 4.03789 94.2762 4.3099C93.7505 4.52599 93.2984 4.88934 92.9742 5.35626C92.6806 5.78624 92.5256 6.29579 92.5301 6.81644C92.5039 7.36046 92.6774 7.89529 93.0179 8.32037C93.3281 8.68521 93.7249 8.96633 94.1719 9.13794C94.7211 9.33992 95.2831 9.50515 95.8542 9.63252C96.3139 9.73588 96.764 9.87769 97.2 10.0564C97.3229 10.0999 97.4291 10.1806 97.5039 10.2874C97.5787 10.3942 97.6183 10.5216 97.6172 10.652C97.6182 10.7596 97.5919 10.8658 97.5407 10.9606C97.4896 11.0553 97.4151 11.1355 97.3245 11.1936C97.0765 11.3464 96.7876 11.4192 96.4968 11.4022C96.1443 11.413 95.798 11.3078 95.511 11.1028C95.384 11.0113 95.2781 10.8937 95.2004 10.758C95.1226 10.6222 95.0748 10.4713 95.0602 10.3155H92.2374C92.2762 10.9115 92.4904 11.4828 92.8531 11.9574ZM102.105 2.64784C101.951 2.51347 101.827 2.34751 101.742 2.16119C101.658 1.97487 101.614 1.77253 101.614 1.56784C101.609 1.35874 101.649 1.15095 101.731 0.958721C101.814 0.766493 101.937 0.594381 102.092 0.454195C102.435 0.169346 102.866 0.0133972 103.312 0.0133972C103.757 0.0133972 104.189 0.169346 104.531 0.454195C104.688 0.593876 104.812 0.765654 104.897 0.957829C104.981 1.15 105.023 1.35806 105.019 1.56784C105.023 1.77344 104.982 1.97745 104.901 2.16609C104.819 2.35473 104.697 2.52361 104.545 2.6613C104.203 2.948 103.771 3.10516 103.325 3.10516C102.879 3.10516 102.447 2.948 102.105 2.6613V2.64784ZM104.753 4.06093V13.3839H101.893V4.06093H104.753ZM106.715 11.2508C107.117 11.9645 107.714 12.5483 108.437 12.9331C109.197 13.328 110.044 13.5269 110.9 13.5118C111.762 13.5237 112.614 13.3226 113.38 12.9263C114.112 12.5429 114.721 11.9596 115.136 11.2441C115.556 10.4662 115.775 9.59619 115.775 8.71233C115.775 7.82846 115.556 6.95845 115.136 6.18055C114.729 5.4659 114.127 4.88226 113.4 4.49831C112.632 4.11321 111.785 3.91269 110.925 3.91269C110.066 3.91269 109.219 4.11321 108.451 4.49831C107.724 4.88226 107.121 5.4659 106.715 6.18055C106.301 6.96138 106.084 7.83181 106.084 8.71569C106.084 9.59957 106.301 10.47 106.715 11.2508ZM112.875 8.72074C112.916 9.34866 112.708 9.96744 112.296 10.4434C112.121 10.6378 111.905 10.7929 111.665 10.8984C111.425 11.0039 111.166 11.0575 110.904 11.0557C110.646 11.0613 110.391 11.0103 110.155 10.9062C109.92 10.8021 109.71 10.6476 109.541 10.4534C109.149 9.96822 108.954 9.35315 108.996 8.73083C108.953 8.10511 109.15 7.48649 109.548 7.00148C109.725 6.8131 109.94 6.66301 110.177 6.56043C110.415 6.45784 110.671 6.40493 110.93 6.40493C111.189 6.40493 111.446 6.45784 111.683 6.56043C111.921 6.66301 112.136 6.8131 112.313 7.00148C112.715 7.48105 112.916 8.09674 112.875 8.72074ZM125.431 5.01981C126.084 5.72971 126.41 6.70205 126.41 7.93682V13.3839H123.567V8.32037C123.6 7.79146 123.426 7.27052 123.083 6.86691C122.73 6.53451 122.264 6.34938 121.779 6.34938C121.295 6.34938 120.828 6.53451 120.475 6.86691C120.132 7.27052 119.958 7.79146 119.991 8.32037V13.3839H117.135V4.06093H119.991V5.29569C120.292 4.87595 120.695 4.54008 121.162 4.31999C121.676 4.07464 122.241 3.95144 122.81 3.95999C123.298 3.9375 123.784 4.02055 124.237 4.20346C124.689 4.38638 125.097 4.66484 125.431 5.01981ZM40.5723 20.4493C39.6876 20.9454 38.961 21.6813 38.4762 22.5723V22.5892C37.9807 23.5457 37.722 24.6072 37.722 25.6845C37.722 26.7618 37.9807 27.8233 38.4762 28.7798C38.9635 29.6663 39.6897 30.3984 40.5723 30.8927C41.5053 31.4091 42.5577 31.6713 43.6239 31.6531C44.9034 31.6887 46.1595 31.3047 47.2004 30.5596C48.1943 29.8231 48.8981 28.761 49.1888 27.5585H46.0463C45.8314 28.0258 45.4794 28.4165 45.037 28.6789C44.5947 28.9384 44.0895 29.0711 43.5768 29.0624C43.1745 29.0767 42.7739 29.0017 42.404 28.8429C42.034 28.6841 41.7038 28.4454 41.437 28.1439C40.9063 27.4351 40.6194 26.5734 40.6194 25.6878C40.6194 24.8023 40.9063 23.9406 41.437 23.2318C41.7038 22.9303 42.034 22.6916 42.404 22.5328C42.7739 22.374 43.1745 22.299 43.5768 22.3133C44.0895 22.3046 44.5947 22.4373 45.037 22.6968C45.4794 22.9592 45.8314 23.3499 46.0463 23.8172H49.1888C48.9001 22.6065 48.1966 21.5352 47.2004 20.7892C46.1609 20.0406 44.9044 19.6541 43.6239 19.689C42.5577 19.6707 41.5053 19.9329 40.5723 20.4493ZM50.7499 24.3488C51.0747 23.6596 51.588 23.0764 52.2303 22.6665C52.8552 22.2757 53.5792 22.0725 54.3162 22.0811C54.9181 22.0684 55.5137 22.206 56.049 22.4815C56.5164 22.7255 56.9111 23.0888 57.1929 23.5346V22.2157H60.0493V31.5387H57.203V30.2333C56.912 30.6774 56.5125 31.0398 56.0422 31.2864C55.508 31.5615 54.9137 31.6991 54.3129 31.6867C53.5794 31.6936 52.8595 31.4879 52.2404 31.0946C51.6005 30.6819 51.088 30.0994 50.76 29.4123C50.4043 28.6186 50.2204 27.7587 50.2204 26.889C50.2204 26.0192 50.4043 25.1593 50.76 24.3656L50.7499 24.3488ZM56.5974 25.2034C56.4142 25.004 56.1909 24.8457 55.9421 24.739C55.6933 24.6323 55.4247 24.5796 55.154 24.5843C54.8837 24.5795 54.6155 24.6312 54.3663 24.736C54.1172 24.8409 53.8927 24.9966 53.7073 25.1933C53.5024 25.4207 53.3446 25.6864 53.2429 25.9752C53.1413 26.2639 53.0979 26.5699 53.1151 26.8755C53.0876 27.4917 53.2998 28.0947 53.7073 28.5578C53.8931 28.7544 54.1171 28.911 54.3656 29.018C54.6141 29.1251 54.8818 29.1803 55.1523 29.1803C55.4229 29.1803 55.6906 29.1251 55.939 29.018C56.1875 28.911 56.4115 28.7544 56.5974 28.5578C56.9796 28.0804 57.1878 27.4871 57.1878 26.8755C57.1878 26.264 56.9796 25.6707 56.5974 25.1933V25.2034ZM67.3536 22.0946C66.7549 22.081 66.1624 22.2187 65.631 22.495C65.1633 22.7425 64.7662 23.1049 64.477 23.548V22.2292H61.6205V35.9933H64.477V30.2467C64.7716 30.6834 65.1706 31.0396 65.6377 31.283C66.1674 31.5573 66.7572 31.6949 67.3536 31.6834C68.0915 31.6913 68.8159 31.4857 69.4396 31.0912C70.0794 30.6785 70.592 30.0961 70.92 29.409C71.2757 28.6153 71.4595 27.7554 71.4595 26.8856C71.4595 26.0159 71.2757 25.1559 70.92 24.3622C70.5951 23.673 70.0819 23.0898 69.4396 22.68C68.8147 22.2891 68.0907 22.086 67.3536 22.0946ZM67.2951 24.7276C67.5471 24.8325 67.7744 24.9888 67.9626 25.1865L67.9693 25.1933C68.1726 25.4208 68.3289 25.6862 68.4294 25.9743C68.5299 26.2625 68.5725 26.5676 68.5547 26.8721C68.5828 27.4902 68.3664 28.0945 67.9525 28.5544C67.7678 28.7549 67.5429 28.9143 67.2924 29.0221C67.042 29.1299 66.7717 29.1838 66.499 29.1802C66.2284 29.1849 65.9598 29.1322 65.711 29.0255C65.4622 28.9188 65.2388 28.7605 65.0557 28.5611C64.6735 28.0837 64.4652 27.4904 64.4652 26.8789C64.4652 26.2673 64.6735 25.674 65.0557 25.1966C65.2388 24.9973 65.4622 24.839 65.711 24.7323C65.9598 24.6256 66.2284 24.5728 66.499 24.5776C66.7719 24.5717 67.0431 24.6228 67.2951 24.7276ZM73.0161 20.8161C72.8624 20.679 72.7401 20.5103 72.6577 20.3216C72.5752 20.1328 72.5345 19.9285 72.5383 19.7226C72.5329 19.5135 72.5728 19.3057 72.6553 19.1135C72.7377 18.9213 72.8608 18.7492 73.0161 18.609C73.3586 18.3241 73.7901 18.1682 74.2357 18.1682C74.6812 18.1682 75.1127 18.3241 75.4553 18.609C75.6094 18.7499 75.7315 18.9222 75.8133 19.1143C75.8952 19.3064 75.9348 19.5139 75.9297 19.7226C75.9335 19.9282 75.8931 20.1322 75.8112 20.3209C75.7294 20.5095 75.608 20.6784 75.4553 20.8161C75.1136 21.1028 74.6818 21.2599 74.2357 21.2599C73.7896 21.2599 73.3578 21.1028 73.0161 20.8161ZM75.6639 22.2292V31.5521H72.8075V22.2292H75.6639ZM83.1095 31.5521V29.1297L82.0934 29.1398C81.854 29.1635 81.6142 29.0976 81.4205 28.9548C81.3479 28.874 81.2928 28.7791 81.2587 28.6761C81.2245 28.573 81.212 28.464 81.222 28.3559V24.6112H83.0927V22.2561H81.222V19.9817H78.3656V22.2561H77.2284V24.6112H78.3656V28.3121C78.3656 29.4583 78.6549 30.2849 79.2336 30.7918C79.8123 31.2987 80.6198 31.5521 81.656 31.5521H83.1095ZM84.489 24.3488C84.8129 23.66 85.3249 23.0769 85.966 22.6665C86.5934 22.2797 87.3183 22.0801 88.0553 22.0912C88.6562 22.0781 89.2507 22.2157 89.7847 22.4916C90.2537 22.7346 90.6497 23.0981 90.9319 23.5447V22.2258H93.7884V31.5488H90.9319V30.2333C90.6406 30.6783 90.2397 31.0409 89.7678 31.2864C89.2339 31.5622 88.6393 31.6999 88.0385 31.6867C87.3051 31.6928 86.5854 31.4872 85.966 31.0946C85.3272 30.6816 84.8158 30.0992 84.489 29.4123C84.1312 28.6192 83.9462 27.7591 83.9462 26.889C83.9462 26.0189 84.1312 25.1587 84.489 24.3656V24.3488ZM90.3364 25.2034C90.1484 25.0106 89.9236 24.8574 89.6755 24.7528C89.4273 24.6482 89.1607 24.5943 88.8914 24.5943C88.6221 24.5943 88.3555 24.6482 88.1073 24.7528C87.8591 24.8574 87.6344 25.0106 87.4463 25.2034C87.2408 25.4304 87.0826 25.696 86.981 25.9849C86.8793 26.2737 86.8362 26.5799 86.8542 26.8856C86.8234 27.5023 87.0361 28.1064 87.4463 28.5678C87.6322 28.7645 87.8562 28.9211 88.1047 29.0281C88.3531 29.1352 88.6208 29.1904 88.8914 29.1904C89.1619 29.1904 89.4296 29.1352 89.6781 29.0281C89.9266 28.9211 90.1506 28.7645 90.3364 28.5678C90.7186 28.0905 90.9269 27.4971 90.9269 26.8856C90.9269 26.2741 90.7186 25.6807 90.3364 25.2034ZM98.5491 31.5521V19.1877H95.6927V31.5521H98.5491Z" fill="white"/>
<path d="M31.781 14.723C31.6063 14.4067 31.35 14.143 31.0387 13.9596C30.7274 13.7761 30.3726 13.6796 30.0112 13.68H27.5148L29.2408 10.8538C29.4327 10.5468 29.5385 10.1937 29.5471 9.83167C29.5557 9.46964 29.4668 9.11196 29.2896 8.79613C29.1124 8.48031 28.8535 8.21795 28.5401 8.03658C28.2266 7.8552 27.8702 7.76148 27.5081 7.76523H24.6449L26.5088 4.71364C26.7017 4.40651 26.8082 4.0531 26.8172 3.69056C26.8263 3.32802 26.7375 2.96974 26.5602 2.65338C26.3829 2.33702 26.1237 2.07425 25.8097 1.89271C25.4958 1.71116 25.1387 1.61754 24.7761 1.62168H10.7899C10.4423 1.62317 10.1008 1.71323 9.79761 1.88335C9.49444 2.05348 9.23963 2.29807 9.05723 2.59402L0.30957 16.9335C0.117527 17.2394 0.0110844 17.5912 0.00134455 17.9523C-0.00839532 18.3134 0.0789243 18.6705 0.254196 18.9863C0.429467 19.3021 0.686269 19.5651 0.997819 19.7479C1.30937 19.9307 1.66425 20.0265 2.02546 20.0254H4.88863L3.0348 23.077C2.84197 23.3841 2.73543 23.7376 2.72639 24.1001C2.71735 24.4626 2.80614 24.8209 2.98343 25.1373C3.16072 25.4536 3.41996 25.7164 3.7339 25.8979C4.04784 26.0795 4.40489 26.1731 4.76751 26.169H7.26396L5.53798 28.9951C5.34603 29.3022 5.24022 29.6553 5.23163 30.0173C5.22305 30.3793 5.31201 30.737 5.48919 31.0528C5.66637 31.3687 5.92525 31.631 6.23868 31.8124C6.55212 31.9938 6.90858 32.0875 7.27069 32.0837H21.2569C21.6046 32.0829 21.9464 31.9931 22.2497 31.8229C22.5529 31.6527 22.8077 31.4078 22.9896 31.1114L31.7541 16.772C31.941 16.4639 32.0421 16.1115 32.0468 15.7511C32.0516 15.3908 31.9598 15.0358 31.781 14.723ZM27.5182 9.80411L25.163 13.6834H21.0281L23.4034 9.80075L27.5182 9.80411ZM12.2468 18.0034H8.49873L13.5219 9.79402H21.0382L18.6628 13.68H16.0217C15.6745 13.6814 15.3334 13.7715 15.0308 13.9416C14.7282 14.1118 14.474 14.3564 14.2924 14.6523L12.2468 18.0034ZM16.0217 15.6987H17.4281L16.0251 17.9933H14.6154L16.0217 15.6987ZM16.0217 20.0221C16.367 20.0209 16.7063 19.9323 17.0081 19.7646C17.3098 19.597 17.5643 19.3557 17.7477 19.0632L19.7933 15.6987H23.8946L18.757 24.1436H10.8741L13.3907 20.0288L16.0217 20.0221ZM2.02546 18.0034L10.7899 3.64374L24.7862 3.66393L22.2797 7.7686H13.532C13.1814 7.76656 12.8362 7.85498 12.5297 8.0253C12.2232 8.19563 11.9659 8.44211 11.7825 8.74093L6.13349 17.9933L2.02546 18.0034ZM4.75406 24.1436L7.26733 20.0389H11.0086L8.49873 24.1503L4.75406 24.1436ZM21.2636 30.0718L7.26733 30.0516L9.62247 26.1757H18.747C19.0941 26.174 19.435 26.0838 19.7376 25.9136C20.0402 25.7435 20.2944 25.4991 20.4763 25.2034L26.2699 15.7222H30.0213L21.2636 30.0718Z" fill="#FFB524"/>
</g>
<defs>
<clipPath id="clip0_1030_2839">
<rect width="126.41" height="36" fill="white"/>
</clipPath>
</defs>
</svg>
